<?xml version="1.0" standalone="no"?>
<!DOCTYPE svg PUBLIC "-//W3C//DTD SVG 20010904//EN"
 "http://www.w3.org/TR/2001/REC-SVG-20010904/DTD/svg10.dtd">
<svg version="1.0" xmlns="http://www.w3.org/2000/svg"
 width="736.000000pt" height="1104.000000pt" viewBox="0 0 736.000000 1104.000000"
 preserveAspectRatio="xMidYMid meet">

<g transform="translate(0.000000,1104.000000) scale(0.100000,-0.100000)"
fill="#000000" stroke="none">
<path d="M3520 8884 c-992 -69 -1841 -526 -2431 -1310 -353 -469 -578 -1020
-654 -1603 -69 -528 -5 -1130 168 -1600 l24 -64 50 74 c112 168 143 229 223
443 l83 219 -12 81 c-80 555 4 1111 245 1616 36 74 85 169 110 212 l45 78 -35
31 c-73 63 -109 185 -87 289 31 144 158 303 296 371 63 31 78 34 155 34 47 0
133 -4 192 -9 l106 -9 59 45 c779 596 1807 718 2705 323 120 -53 292 -147 398
-218 63 -43 86 -52 152 -63 169 -27 277 -125 318 -291 10 -39 28 -68 79 -125
310 -349 550 -822 645 -1275 50 -240 59 -332 61 -633 l3 -285 36 -110 c20 -60
54 -175 77 -255 83 -299 73 -275 153 -356 39 -41 76 -74 82 -74 22 0 108 325
143 540 35 213 44 327 44 560 1 678 -183 1303 -550 1869 -472 727 -1227 1251
-2051 1425 -246 52 -628 84 -832 70z"/>
<path d="M4196 7685 c-105 -37 -181 -193 -146 -299 18 -56 51 -88 173 -172 62
-42 131 -92 155 -111 47 -38 88 -110 98 -171 6 -36 1 -48 -57 -138 -73 -115
-131 -193 -211 -284 -96 -110 -111 -181 -60 -283 30 -59 28 -60 -28 -16 -72
58 -163 73 -229 39 -39 -19 -91 -72 -91 -92 0 -16 -52 -128 -59 -128 -3 0 -78
130 -165 288 -206 370 -373 664 -444 777 -156 250 -291 409 -386 455 l-49 23
-199 -13 c-211 -14 -412 -9 -666 15 -91 9 -154 10 -175 4 -114 -31 -247 -191
-247 -296 0 -40 27 -91 57 -106 15 -8 48 -18 73 -22 119 -18 209 -60 241 -111
33 -54 34 -136 4 -239 -43 -148 -84 -253 -148 -378 -53 -105 -59 -122 -54
-162 6 -56 44 -116 99 -156 l42 -30 -40 6 c-54 9 -117 -9 -159 -46 -31 -27
-41 -52 -96 -222 -161 -505 -428 -1234 -491 -1342 -174 -298 -329 -474 -487
-555 -100 -51 -131 -96 -139 -201 -8 -117 53 -211 155 -238 47 -13 109 -3 146
23 12 8 41 29 65 46 111 78 287 147 450 175 94 17 288 21 454 10 93 -7 108 -5
143 13 50 25 68 45 94 102 60 132 -8 299 -137 336 -31 9 -63 22 -70 28 -18 18
-29 167 -20 284 22 301 160 693 390 1107 30 55 60 122 66 149 17 79 -12 145
-89 206 l-51 40 54 0 c81 0 141 24 186 75 31 35 142 221 155 259 4 13 70 -24
129 -74 227 -189 479 -685 697 -1370 141 -444 249 -900 291 -1228 22 -170 36
-208 98 -264 34 -31 47 -36 110 -42 l71 -7 53 40 c85 64 661 609 686 649 27
44 62 153 62 192 0 45 -107 309 -224 553 -67 139 -96 243 -96 343 0 87 14 159
75 368 51 178 75 301 75 387 0 46 -7 70 -34 123 l-34 65 69 -46 c65 -43 74
-47 138 -47 57 -1 73 3 109 27 23 15 46 27 51 27 68 0 302 -434 485 -897 171
-436 237 -708 206 -857 -11 -52 -17 -61 -100 -137 -49 -45 -119 -103 -156
-130 -83 -61 -92 -74 -105 -148 -10 -53 -8 -68 11 -128 27 -80 41 -100 95
-124 77 -36 161 -23 240 36 17 13 57 36 90 52 157 78 304 103 616 103 286 0
448 -28 673 -117 104 -41 176 -47 241 -19 60 25 83 53 106 126 22 66 22 68 4
134 -16 60 -25 73 -79 123 -34 30 -122 101 -196 158 -182 139 -222 175 -269
247 -42 62 -46 74 -126 358 -159 565 -421 1228 -721 1820 l-124 245 -15 110
c-8 61 -19 198 -23 306 -7 178 -10 200 -33 244 -13 27 -41 63 -62 79 -51 40
-130 46 -240 17 l-78 -20 -172 19 c-95 11 -206 25 -247 30 -66 9 -397 41 -410
40 -3 -1 -22 -7 -44 -15z"/>
<path d="M5775 3619 l-89 -10 -111 -109 c-143 -142 -250 -230 -406 -335 -335
-225 -695 -365 -1104 -430 -136 -22 -480 -31 -627 -16 -131 13 -299 40 -398
65 -455 116 -895 361 -1231 688 l-86 83 -99 5 c-259 13 -517 -1 -564 -30 -15
-9 33 -76 160 -225 527 -614 1215 -996 2010 -1116 136 -21 191 -24 445 -24
227 0 318 4 420 18 837 118 1565 530 2103 1190 82 101 166 216 161 221 -29 26
-419 43 -584 25z"/>
</g>
</svg>
